<svg width="64" height="64" viewBox="0 0 64 64" fill="none" xmlns="http://www.w3.org/2000/svg">
<path d="M0 32C0 14.3269 14.3269 0 32 0C49.6731 0 64 14.3269 64 32C64 49.6731 49.6731 64 32 64C14.3269 64 0 49.6731 0 32Z" fill="#A855F7" fill-opacity="0.2"/>
<path d="M27.333 20.3335V25.0002" stroke="#C084FC" stroke-width="2" stroke-linecap="round" stroke-linejoin="round"/>
<path d="M36.667 20.3335V25.0002" stroke="#C084FC" stroke-width="2" stroke-linecap="round" stroke-linejoin="round"/>
<path d="M40.1667 22.6665H23.8333C22.5447 22.6665 21.5 23.7112 21.5 24.9998V41.3332C21.5 42.6218 22.5447 43.6665 23.8333 43.6665H40.1667C41.4553 43.6665 42.5 42.6218 42.5 41.3332V24.9998C42.5 23.7112 41.4553 22.6665 40.1667 22.6665Z" stroke="#C084FC" stroke-width="2" stroke-linecap="round" stroke-linejoin="round"/>
<path d="M21.5 29.6665H42.5" stroke="#C084FC" stroke-width="2" stroke-linecap="round" stroke-linejoin="round"/>
</svg>
