<svg width="64" height="64" viewBox="0 0 64 64" fill="none" xmlns="http://www.w3.org/2000/svg">
<path d="M0 32C0 14.3269 14.3269 0 32 0C49.6731 0 64 14.3269 64 32C64 49.6731 49.6731 64 32 64C14.3269 64 0 49.6731 0 32Z" fill="#A855F7" fill-opacity="0.2"/>
<path d="M34.9163 22.6665H29.083L26.1663 26.1665H22.6663C22.0475 26.1665 21.454 26.4123 21.0164 26.8499C20.5788 27.2875 20.333 27.881 20.333 28.4998V38.9998C20.333 39.6187 20.5788 40.2122 21.0164 40.6498C21.454 41.0873 22.0475 41.3332 22.6663 41.3332H41.333C41.9518 41.3332 42.5453 41.0873 42.9829 40.6498C43.4205 40.2122 43.6663 39.6187 43.6663 38.9998V28.4998C43.6663 27.881 43.4205 27.2875 42.9829 26.8499C42.5453 26.4123 41.9518 26.1665 41.333 26.1665H37.833L34.9163 22.6665Z" stroke="#C084FC" stroke-width="2" stroke-linecap="round" stroke-linejoin="round"/>
<path d="M32 36.6665C33.933 36.6665 35.5 35.0995 35.5 33.1665C35.5 31.2335 33.933 29.6665 32 29.6665C30.067 29.6665 28.5 31.2335 28.5 33.1665C28.5 35.0995 30.067 36.6665 32 36.6665Z" stroke="#C084FC" stroke-width="2" stroke-linecap="round" stroke-linejoin="round"/>
</svg>
