<svg width="64" height="64" viewBox="0 0 64 64" fill="none" xmlns="http://www.w3.org/2000/svg">
<path d="M0 32C0 14.3269 14.3269 0 32 0C49.6731 0 64 14.3269 64 32C64 49.6731 49.6731 64 32 64C14.3269 64 0 49.6731 0 32Z" fill="#A855F7" fill-opacity="0.2"/>
<path d="M36.6663 42.5V40.1667C36.6663 38.929 36.1747 37.742 35.2995 36.8668C34.4243 35.9917 33.2374 35.5 31.9997 35.5H24.9997C23.762 35.5 22.575 35.9917 21.6998 36.8668C20.8247 37.742 20.333 38.929 20.333 40.1667V42.5" stroke="#C084FC" stroke-width="2" stroke-linecap="round" stroke-linejoin="round"/>
<path d="M28.4997 30.8333C31.077 30.8333 33.1663 28.744 33.1663 26.1667C33.1663 23.5893 31.077 21.5 28.4997 21.5C25.9223 21.5 23.833 23.5893 23.833 26.1667C23.833 28.744 25.9223 30.8333 28.4997 30.8333Z" stroke="#C084FC" stroke-width="2" stroke-linecap="round" stroke-linejoin="round"/>
<path d="M43.667 42.5002V40.1669C43.6662 39.1329 43.3221 38.1284 42.6886 37.3112C42.0551 36.494 41.1681 35.9104 40.167 35.6519" stroke="#C084FC" stroke-width="2" stroke-linecap="round" stroke-linejoin="round"/>
<path d="M36.667 21.6519C37.6708 21.9089 38.5605 22.4927 39.1959 23.3112C39.8313 24.1298 40.1761 25.1365 40.1761 26.1727C40.1761 27.2089 39.8313 28.2156 39.1959 29.0342C38.5605 29.8527 37.6708 30.4365 36.667 30.6935" stroke="#C084FC" stroke-width="2" stroke-linecap="round" stroke-linejoin="round"/>
</svg>
