<svg width="64" height="64" viewBox="0 0 64 64" fill="none" xmlns="http://www.w3.org/2000/svg">
<path d="M0 32C0 14.3269 14.3269 0 32 0C49.6731 0 64 14.3269 64 32C64 49.6731 49.6731 64 32 64C14.3269 64 0 49.6731 0 32Z" fill="#A855F7" fill-opacity="0.2"/>
<path d="M36.667 33.1667L42.7605 37.229C42.8483 37.2874 42.9504 37.321 43.0558 37.326C43.1612 37.3311 43.266 37.3074 43.359 37.2576C43.452 37.2078 43.5298 37.1337 43.584 37.0432C43.6383 36.9527 43.6669 36.8492 43.667 36.7437V27.1817C43.667 27.079 43.64 26.9782 43.5886 26.8893C43.5372 26.8005 43.4632 26.7268 43.3742 26.6757C43.2852 26.6245 43.1843 26.5978 43.0817 26.5981C42.979 26.5985 42.8783 26.6259 42.7897 26.6777L36.667 30.25" stroke="#C084FC" stroke-width="2" stroke-linecap="round" stroke-linejoin="round"/>
<path d="M34.333 25H22.6663C21.3777 25 20.333 26.0447 20.333 27.3333V36.6667C20.333 37.9553 21.3777 39 22.6663 39H34.333C35.6217 39 36.6663 37.9553 36.6663 36.6667V27.3333C36.6663 26.0447 35.6217 25 34.333 25Z" stroke="#C084FC" stroke-width="2" stroke-linecap="round" stroke-linejoin="round"/>
</svg>
